<svg width="2560" height="1461" viewBox="0 0 2560 1461" fill="none" xmlns="http://www.w3.org/2000/svg">
<path fill-rule="evenodd" clip-rule="evenodd" d="M97.2886 1461H48.892V1417.82H-39.2585V1405.73H-60V1366L124.944 1366L150.871 1366L341 1366V1402.27H206.181V1442.86H195.81V1402.27H180.254V1428.18H124.944V1405.73H97.2886V1461Z" fill="#225666"/>
<path fill-rule="evenodd" clip-rule="evenodd" d="M444.19 1461H490.052V1405.73H516.259V1428.18H568.673V1402.27H583.414V1442.86H593.241V1402.27H607.983V1442.86H658.759V1402.27H721V1366L540.828 1366L516.259 1366L341 1366V1405.73H360.655V1417.82H444.19V1461Z" fill="#225666"/>
<path fill-rule="evenodd" clip-rule="evenodd" d="M824.19 1461H870.052V1405.73H896.259V1428.18H948.673V1402.27H963.414V1442.86H973.241V1402.27H987.983V1442.86H1038.76V1402.27H1101V1366L920.828 1366L896.259 1366L721 1366V1405.73H740.655V1417.82H824.19V1461Z" fill="#225666"/>
<path fill-rule="evenodd" clip-rule="evenodd" d="M1204.19 1461H1250.05V1405.73H1276.26V1428.18H1328.67V1402.27H1343.41V1442.86H1353.24V1402.27H1367.98V1442.86H1418.76V1402.27H1481V1366L1300.83 1366L1276.26 1366L1101 1366V1405.73H1120.66V1417.82H1204.19V1461Z" fill="#225666"/>
<path fill-rule="evenodd" clip-rule="evenodd" d="M1584.19 1461H1630.05V1405.73H1656.26V1428.18H1708.67V1402.27H1723.41V1442.86H1733.24V1402.27H1747.98V1442.86H1798.76V1402.27H1861V1366L1680.83 1366L1656.26 1366L1481 1366V1405.73H1500.66V1417.82H1584.19V1461Z" fill="#225666"/>
<path fill-rule="evenodd" clip-rule="evenodd" d="M1964.19 1461H2010.05V1405.73H2036.26V1428.18H2088.67V1402.27H2103.41V1442.86H2113.24V1402.27H2127.98V1442.86H2178.76V1402.27H2241V1366L2060.83 1366L2036.26 1366L1861 1366V1405.73H1880.66V1417.82H1964.19V1461Z" fill="#225666"/>
<path fill-rule="evenodd" clip-rule="evenodd" d="M2344.19 1461H2390.05V1405.73H2416.26V1428.18H2468.67V1402.27H2483.41V1442.86H2493.24V1402.27H2507.98V1442.86H2558.76V1402.27H2621V1366L2440.83 1366L2416.26 1366L2241 1366V1405.73H2260.66V1417.82H2344.19V1461Z" fill="#225666"/>
<rect y="94" width="2560" height="1287" fill="#225666"/>
<path fill-rule="evenodd" clip-rule="evenodd" d="M87.892 0H136.289V55.2727H163.944V32.8182H219.254V58.7273H234.81V18.1364H245.181V58.7273H260.737V18.1364H314.319V58.7273H380V95L189.871 95L163.944 95L-21 95V55.2727H-0.258514V43.1818H87.892V0Z" fill="#225666"/>
<path fill-rule="evenodd" clip-rule="evenodd" d="M483.19 0H529.052V55.2727H555.259V32.8182H607.673V58.7273H622.414V18.1364H632.241V58.7273H646.983V18.1364H697.759V58.7273H760V95L579.828 95L555.259 95L380 95V55.2727H399.655V43.1818H483.19V0Z" fill="#225666"/>
<path fill-rule="evenodd" clip-rule="evenodd" d="M863.19 0H909.052V55.2727H935.259V32.8182H987.673V58.7273H1002.41V18.1364H1012.24V58.7273H1026.98V18.1364H1077.76V58.7273H1140V95L959.828 95L935.259 95L760 95V55.2727H779.655V43.1818H863.19V0Z" fill="#225666"/>
<path fill-rule="evenodd" clip-rule="evenodd" d="M1243.19 0H1289.05V55.2727H1315.26V32.8182H1367.67V58.7273H1382.41V18.1364H1392.24V58.7273H1406.98V18.1364H1457.76V58.7273H1520V95L1339.83 95L1315.26 95L1140 95V55.2727H1159.66V43.1818H1243.19V0Z" fill="#225666"/>
<path fill-rule="evenodd" clip-rule="evenodd" d="M1623.19 0H1669.05V55.2727H1695.26V32.8182H1747.67V58.7273H1762.41V18.1364H1772.24V58.7273H1786.98V18.1364H1837.76V58.7273H1900V95L1719.83 95L1695.26 95L1520 95V55.2727H1539.66V43.1818H1623.19V0Z" fill="#225666"/>
<path fill-rule="evenodd" clip-rule="evenodd" d="M2003.19 0H2049.05V55.2727H2075.26V32.8182H2127.67V58.7273H2142.41V18.1364H2152.24V58.7273H2166.98V18.1364H2217.76V58.7273H2280V95L2099.83 95L2075.26 95L1900 95V55.2727H1919.66V43.1818H2003.19V0Z" fill="#225666"/>
<path fill-rule="evenodd" clip-rule="evenodd" d="M2383.19 0H2429.05V55.2727H2455.26V32.8182H2507.67V58.7273H2522.41V18.1364H2532.24V58.7273H2546.98V18.1364H2597.76V58.7273H2660V95L2479.83 95L2455.26 95L2280 95V55.2727H2299.66V43.1818H2383.19V0Z" fill="#225666"/>
</svg>
